<?xml version="1.0" encoding="iso-8859-1"?>
<!-- Uploaded to: SVG Repo, www.svgrepo.com, Generator: SVG Repo Mixer Tools -->
<!DOCTYPE svg PUBLIC "-//W3C//DTD SVG 1.1//EN" "http://www.w3.org/Graphics/SVG/1.1/DTD/svg11.dtd">
<svg fill="#000000" height="800px" width="800px" version="1.1" id="Capa_1" xmlns="http://www.w3.org/2000/svg" xmlns:xlink="http://www.w3.org/1999/xlink" 
	 viewBox="0 0 466.518 466.518" xml:space="preserve">
<path d="M257.038,260.791v-50.442h8.779c4.142,0,7.5-3.357,7.5-7.5V7.5c0-4.143-3.358-7.5-7.5-7.5h-65.116
	c-4.142,0-7.5,3.357-7.5,7.5v195.349c0,4.143,3.358,7.5,7.5,7.5h8.779v50.442c-33.862,13.393-57.062,53.768-57.062,100.553
	c0,27.703,8.162,53.83,22.983,73.569c15.303,20.38,35.851,31.604,57.857,31.604s42.554-11.225,57.857-31.604
	c14.821-19.739,22.983-45.866,22.983-73.569C314.099,314.559,290.9,274.184,257.038,260.791z M244.307,361.344
	c0,48.55-6.487,78.543-11.048,87.905c-4.561-9.362-11.048-39.355-11.048-87.905c0-46.687,5.996-77.435,11.033-87.729h0.029
	C238.311,283.909,244.307,314.657,244.307,361.344z M214.862,281.268c-5.512,21.522-7.651,53.642-7.651,80.076
	c0,26.545,1.976,51.569,5.564,70.465c0.663,3.492,1.365,6.695,2.107,9.632c-3.385-3.817-6.579-8.646-9.449-14.385
	c-8.713-17.428-13.512-40.765-13.512-65.712C191.922,327.82,201.256,296.705,214.862,281.268z M261.083,427.056
	c-2.87,5.739-6.064,10.568-9.449,14.385c0.742-2.937,1.444-6.14,2.107-9.632c3.588-18.896,5.564-43.92,5.564-70.465
	c0-26.434-2.14-58.554-7.651-80.076c13.606,15.438,22.94,46.552,22.94,80.076C274.596,386.291,269.797,409.628,261.083,427.056z
	 M208.201,15h50.116v180.349h-8.779H216.98h-8.779V15z M242.038,210.349v48.266h-4.662h-8.233h-4.662v-48.266H242.038z
	 M167.418,361.344c0-26.365,8.59-50.777,22.407-67.532c-8.125,18.376-12.904,42.019-12.904,67.532
	c0,26.019,4.819,49.548,12.915,67.723C176.102,412.528,167.418,388.3,167.418,361.344z M276.681,429.066
	c8.096-18.175,12.915-41.704,12.915-67.723c0-25.514-4.779-49.156-12.904-67.532c13.817,16.755,22.407,41.167,22.407,67.532
	C299.099,388.3,290.415,412.528,276.681,429.066z M236.558,169.259v-12.8c0-4.143,3.358-7.5,7.5-7.5s7.5,3.357,7.5,7.5v12.8
	c0,4.143-3.358,7.5-7.5,7.5S236.558,173.401,236.558,169.259z M236.558,126.063V41.259c0-4.143,3.358-7.5,7.5-7.5s7.5,3.357,7.5,7.5
	v84.805c0,4.143-3.358,7.5-7.5,7.5S236.558,130.206,236.558,126.063z"/>
</svg>